<?xml version="1.0" standalone="no"?>
<!DOCTYPE svg PUBLIC "-//W3C//DTD SVG 20010904//EN"
 "http://www.w3.org/TR/2001/REC-SVG-20010904/DTD/svg10.dtd">
<svg version="1.0" xmlns="http://www.w3.org/2000/svg"
 width="1000.000000pt" height="1000.000000pt" viewBox="0 0 1000.000000 1000.000000"
 preserveAspectRatio="xMidYMid meet">
<metadata>
Created by potrace 1.14, written by Peter Selinger 2001-2017
</metadata>
<g transform="translate(0.000000,1000.000000) scale(0.100000,-0.100000)"
fill="#000000" stroke="none">
<path d="M4160 8579 c-14 -4 -79 -12 -145 -16 -117 -9 -122 -10 -178 -47 -100
-66 -119 -116 -157 -406 -33 -249 -21 -614 31 -970 l11 -75 -33 -51 c-28 -42
-68 -118 -119 -225 -17 -35 -60 -150 -93 -247 -25 -73 -46 -116 -74 -148 -21
-25 -50 -60 -64 -77 -27 -33 -99 -163 -99 -179 0 -6 -7 -24 -15 -41 -34 -73
-84 -311 -85 -405 0 -79 52 -233 119 -352 16 -28 40 -95 47 -130 3 -19 10 -40
15 -46 5 -6 13 -31 18 -55 11 -50 36 -129 57 -176 8 -17 14 -40 14 -50 0 -11
7 -28 15 -39 8 -10 15 -26 15 -34 0 -8 9 -33 20 -55 11 -22 19 -47 20 -56 0
-8 7 -24 15 -35 8 -10 15 -24 15 -31 0 -14 104 -240 130 -283 5 -8 31 -54 59
-102 27 -47 66 -109 85 -137 20 -28 36 -53 36 -56 0 -9 -28 -5 -57 9 -55 26
-145 65 -228 98 -105 42 -145 56 -200 73 -33 10 -71 22 -85 28 -27 10 -108 32
-180 48 -25 6 -68 17 -96 25 -28 8 -62 14 -75 14 -13 0 -58 8 -99 17 -119 26
-478 24 -630 -5 -63 -12 -131 -27 -150 -33 -19 -6 -55 -18 -80 -26 -44 -15
-210 -92 -220 -103 -3 -3 -25 -18 -50 -35 -136 -90 -266 -238 -335 -383 -21
-42 -44 -90 -52 -106 -8 -16 -21 -74 -30 -128 -15 -90 -15 -109 0 -236 9 -76
23 -154 32 -175 8 -20 15 -44 15 -53 0 -22 102 -248 120 -264 3 -3 23 -32 45
-65 74 -113 304 -322 423 -384 15 -8 29 -17 32 -21 3 -3 25 -16 49 -28 39 -21
103 -66 139 -100 7 -6 20 -12 28 -12 8 0 14 -7 14 -15 0 -14 14 -19 48 -18 6
1 12 -8 12 -18 0 -14 7 -19 25 -19 18 0 23 -4 18 -16 -5 -14 -1 -15 25 -9 21
4 32 3 32 -4 0 -6 -5 -11 -11 -11 -5 0 -7 -5 -4 -10 4 -6 10 -8 14 -5 5 2 17
-2 27 -10 10 -8 29 -15 40 -15 23 0 48 -23 37 -33 -3 -4 -1 -7 5 -7 19 0 27 4
24 12 -1 5 8 8 19 8 17 0 19 -3 10 -14 -9 -11 -6 -18 15 -35 15 -12 35 -21 44
-21 10 0 20 -7 24 -15 3 -8 15 -15 26 -15 12 0 18 5 15 10 -3 6 3 10 15 10 12
0 19 -4 16 -9 -11 -18 6 -42 25 -36 11 4 19 2 19 -4 0 -6 12 -11 28 -12 24 0
25 -1 7 -9 -17 -8 -16 -9 10 -11 17 -1 37 -3 45 -4 8 -1 21 -3 29 -4 11 -1 10
-5 -5 -16 -17 -13 -15 -14 34 -15 37 0 52 -4 52 -14 0 -7 9 -16 20 -19 11 -3
20 -1 20 4 0 5 12 9 28 8 l27 -1 -25 -8 c-24 -8 -23 -8 8 -9 22 -1 32 -6 32
-17 0 -13 10 -14 68 -8 58 5 70 4 75 -10 4 -9 3 -15 -1 -15 -4 1 -18 0 -32 -1
-14 -2 11 -8 55 -15 44 -7 72 -13 63 -14 -27 -2 -21 -16 7 -19 14 -1 25 3 25
8 0 6 7 10 17 10 9 0 14 -3 10 -6 -13 -14 29 -44 63 -44 59 0 113 -12 98 -21
-8 -5 9 -9 45 -9 43 0 62 -5 77 -20 15 -15 35 -20 96 -22 42 -1 72 -4 66 -6
-7 -2 -12 -10 -12 -17 0 -10 9 -11 38 -4 52 12 105 11 97 -1 -4 -6 -3 -10 2
-9 31 5 243 -3 243 -9 0 -5 -48 -7 -107 -6 -67 2 -100 -1 -88 -6 11 -5 55 -9
97 -9 54 -1 81 -5 92 -16 11 -11 40 -15 118 -15 112 0 158 -7 137 -21 -8 -4
-10 -11 -6 -16 4 -4 17 -1 29 6 16 10 22 10 28 1 8 -12 147 -9 168 4 19 12 14
26 -10 27 -22 1 -22 1 2 8 28 8 45 -15 28 -36 -8 -10 -5 -13 11 -13 11 0 21 5
21 10 0 6 10 10 23 10 16 0 18 -3 8 -9 -9 -6 -10 -11 -2 -15 6 -4 9 -12 6 -17
-4 -5 297 -9 779 -9 602 0 785 3 784 12 -3 11 56 29 92 29 8 0 101 -3 205 -5
110 -3 197 -1 205 4 13 9 13 10 0 11 -8 1 -1 5 15 9 17 3 99 8 184 9 153 2
176 5 166 21 -9 14 31 18 148 13 82 -3 117 -1 122 8 6 8 -10 10 -64 7 -39 -2
-71 0 -71 4 0 4 38 8 83 8 153 0 267 12 267 27 0 8 6 13 13 12 6 -1 49 -1 95
0 81 1 82 1 82 26 0 14 5 25 10 25 6 0 10 -3 10 -7 0 -5 29 -9 66 -9 36 -1 63
1 60 4 -3 3 -1 11 5 19 7 8 34 13 74 13 47 0 64 4 69 15 4 10 20 15 51 15 33
0 45 4 45 15 0 9 9 15 21 15 15 0 20 5 17 18 -4 13 2 17 24 19 15 1 28 -3 28
-8 0 -6 -7 -9 -15 -6 -8 4 -17 2 -20 -3 -4 -6 7 -10 23 -10 25 0 29 3 25 23
-4 21 -2 23 34 19 29 -2 34 -1 23 7 -12 9 -9 11 15 12 30 0 81 17 58 18 -24 2
-13 21 12 21 15 0 25 6 25 14 0 8 9 18 20 21 16 5 20 15 20 56 0 48 -7 56 -42
50 -5 0 -8 6 -8 15 0 8 -4 12 -10 9 -5 -3 -10 -3 -10 0 0 15 24 101 30 110 17
22 90 175 115 239 15 38 31 77 35 85 10 21 29 78 41 121 6 19 14 44 19 55 11
25 57 194 79 295 45 203 50 283 22 393 -29 110 -68 165 -151 212 -54 31 -222
28 -310 -4 -36 -13 -71 -29 -77 -34 -15 -11 -11 -13 -143 91 -50 39 -96 72
-101 72 -6 0 -19 9 -30 19 -18 17 -21 35 -25 142 -7 180 -71 414 -164 599 -35
69 -34 78 2 89 18 5 47 14 63 20 17 6 65 22 107 36 228 75 510 278 626 451 47
70 82 126 82 130 0 3 9 25 21 50 33 74 44 194 30 331 -7 65 -17 136 -22 158
-6 22 -15 58 -20 80 -6 22 -32 85 -60 140 -27 55 -49 109 -49 120 0 18 -7 59
-40 225 -26 129 -37 176 -48 197 -7 12 -12 30 -12 40 -1 10 -9 36 -20 58 -11
22 -19 47 -20 56 0 9 -7 22 -15 29 -19 16 -19 54 -1 88 27 53 111 352 140 497
51 261 51 262 51 540 0 250 -1 272 -19 300 -35 55 -89 104 -120 111 -17 3 -36
10 -41 14 -12 10 -112 36 -213 55 -40 8 -77 17 -83 21 -6 3 -50 10 -97 15 -48
4 -107 13 -132 18 -57 13 -489 13 -555 0 -27 -5 -79 -13 -115 -18 -77 -11
-224 -44 -263 -60 -38 -15 -88 -14 -112 3 -11 7 -37 16 -57 20 -20 4 -50 13
-65 21 -15 8 -41 15 -58 15 -16 0 -50 6 -75 14 -142 45 -216 51 -675 51 l-440
1 -76 37 c-42 20 -81 37 -87 37 -6 0 -23 6 -39 14 -36 19 -92 39 -173 64 -61
19 -105 30 -277 67 -118 26 -550 58 -593 44z m-1 -179 c74 -10 137 -23 140
-28 3 -5 31 -13 61 -17 30 -4 67 -14 82 -21 15 -8 35 -14 45 -14 22 0 126 -39
228 -86 17 -7 42 -18 56 -23 15 -5 29 -19 32 -31 4 -17 0 -24 -24 -32 -37 -13
-37 -21 4 -39 18 -8 33 -23 35 -34 9 -58 181 -105 230 -63 9 9 34 18 54 22 20
4 38 11 40 15 2 5 20 11 41 14 20 3 48 12 61 20 15 10 52 17 97 19 48 2 73 7
72 14 -1 8 28 13 85 16 61 3 95 9 112 21 22 15 57 17 307 17 256 0 283 -2 292
-17 7 -14 28 -18 113 -21 74 -3 105 -8 111 -18 5 -9 27 -14 66 -14 40 0 63 -5
71 -15 7 -8 34 -17 60 -21 27 -4 51 -13 54 -20 3 -8 20 -14 41 -14 21 0 34 -5
33 -11 -4 -14 50 -31 74 -23 10 3 21 -3 28 -16 6 -11 20 -20 32 -20 11 0 26
-7 32 -15 6 -8 29 -17 50 -20 22 -2 44 -11 48 -20 5 -8 16 -15 24 -15 15 0 84
-34 93 -47 10 -13 70 -53 79 -53 5 0 15 -6 21 -14 8 -10 21 -12 44 -6 67 17
131 48 138 67 4 11 21 25 38 31 31 11 43 32 18 32 -7 0 -22 6 -32 14 -18 13
-18 15 14 34 19 11 57 24 85 28 28 3 62 11 76 16 22 9 88 16 419 44 40 4 110
-1 184 -12 167 -26 162 -17 162 -279 0 -249 -30 -451 -106 -720 -11 -38 -24
-89 -29 -113 -5 -24 -13 -49 -17 -55 -5 -7 -13 -28 -19 -47 -12 -42 -30 -42
-84 1 -23 19 -43 27 -53 23 -24 -9 -22 -59 3 -84 11 -11 20 -33 20 -50 0 -20
5 -30 15 -30 10 0 15 -10 15 -34 0 -18 6 -39 14 -45 8 -7 17 -23 21 -38 3 -14
13 -32 20 -40 8 -8 15 -28 15 -44 0 -16 6 -32 14 -35 9 -3 16 -29 21 -70 5
-45 11 -64 21 -64 11 0 14 -16 14 -70 0 -48 4 -71 14 -77 10 -6 15 -39 19
-116 4 -79 10 -113 21 -126 9 -10 16 -25 16 -35 0 -9 7 -19 15 -22 8 -4 15
-12 15 -19 0 -7 9 -24 20 -38 11 -14 20 -39 20 -56 0 -16 6 -34 14 -38 9 -5
15 -33 18 -77 3 -50 9 -72 22 -81 12 -9 17 -26 16 -56 -1 -24 2 -84 5 -134 l7
-90 -38 -72 c-84 -156 -226 -301 -389 -396 -91 -53 -177 -97 -188 -97 -6 0 -8
27 -4 73 7 106 -8 295 -28 342 -65 152 -87 195 -122 247 -18 26 -33 51 -33 56
0 4 -8 15 -17 23 -10 9 -51 55 -92 103 -41 48 -109 116 -153 152 -43 36 -78
72 -78 79 0 16 47 55 66 55 7 0 17 6 21 14 4 8 17 15 28 18 11 2 20 10 20 18
0 12 -23 15 -131 18 -131 3 -132 3 -126 25 3 12 12 28 19 35 20 20 18 201 -2
208 -8 4 -15 14 -15 24 0 29 -11 50 -26 50 -8 0 -14 9 -14 20 0 11 -7 20 -15
20 -9 0 -18 7 -21 15 -4 8 -18 15 -33 15 -15 0 -31 8 -39 20 -11 18 -23 20
-106 20 -79 0 -96 -3 -116 -20 -13 -11 -34 -20 -47 -20 -12 0 -23 -5 -23 -11
0 -7 -16 -27 -36 -45 -23 -22 -37 -46 -41 -70 -3 -20 -12 -38 -19 -41 -10 -4
-14 -25 -14 -70 0 -72 7 -85 92 -171 52 -53 88 -82 101 -82 13 0 161 -115 200
-157 50 -53 147 -184 147 -199 0 -6 7 -17 15 -24 8 -7 15 -20 15 -29 0 -9 8
-29 17 -46 15 -25 18 -57 18 -191 0 -103 -4 -170 -12 -185 -6 -13 -24 -51 -39
-84 -14 -33 -40 -77 -57 -98 -56 -72 -200 -197 -257 -225 -14 -6 -33 -16 -42
-22 -10 -5 -26 -15 -35 -20 -10 -6 -29 -15 -43 -20 -14 -6 -34 -15 -45 -20
-88 -42 -272 -88 -435 -110 -80 -11 -535 -3 -559 9 -9 5 -62 12 -116 16 -55 3
-118 12 -140 20 -22 7 -62 16 -89 20 -27 4 -58 10 -70 15 -11 4 -52 18 -91 30
-73 22 -91 30 -188 76 -62 29 -109 69 -131 113 -12 23 -62 98 -176 265 -49 71
-178 236 -233 295 -56 63 -62 81 -53 177 7 85 54 198 114 274 51 65 140 146
192 177 25 14 47 30 50 34 6 9 145 79 156 79 25 0 126 49 168 82 27 21 53 38
57 38 5 0 9 9 9 20 0 11 6 20 14 20 33 0 34 202 2 226 -9 6 -16 22 -16 35 0
23 -38 69 -57 69 -6 0 -18 9 -28 20 -10 11 -29 20 -42 20 -13 0 -26 7 -29 15
-5 12 -25 15 -94 15 -69 0 -89 -3 -94 -15 -3 -8 -16 -15 -28 -15 -26 0 -62
-27 -71 -52 -4 -10 -13 -18 -22 -18 -8 0 -15 -6 -15 -14 0 -8 -7 -16 -15 -20
-9 -3 -15 -18 -15 -37 0 -18 -6 -37 -14 -43 -8 -6 -16 -35 -19 -64 -3 -42 0
-58 15 -77 l19 -25 -78 7 c-43 3 -80 10 -83 14 -3 4 -24 11 -47 15 -76 12 -64
-18 42 -101 l29 -24 -21 -23 c-12 -13 -48 -37 -80 -53 -32 -16 -64 -35 -71
-42 -7 -7 -17 -13 -21 -13 -18 0 -184 -126 -251 -190 -81 -78 -77 -76 -100
-47 -39 49 -156 62 -200 22 -17 -15 -25 -16 -65 -6 -57 14 -112 2 -145 -34
-13 -14 -43 -31 -66 -36 -25 -7 -55 -25 -75 -45 -21 -22 -42 -34 -60 -34 -14
0 -32 -7 -39 -15 -7 -8 -23 -15 -36 -15 -19 0 -26 8 -36 43 -24 82 -9 234 27
271 8 8 16 38 17 67 2 30 7 52 12 51 14 -6 26 20 26 54 0 17 6 37 14 43 8 7
18 25 21 41 4 16 12 28 18 27 6 -1 13 8 15 21 2 12 10 22 18 22 12 0 20 27 15
54 -1 5 5 6 13 3 11 -4 18 1 22 18 3 14 12 25 20 25 8 0 14 6 14 14 0 7 9 16
20 19 11 3 20 13 20 22 0 9 7 23 15 31 8 9 15 33 15 54 0 21 6 45 13 52 8 7
17 33 21 57 3 23 13 50 21 58 8 8 15 28 15 44 0 16 4 29 10 29 5 0 14 19 20
42 7 22 18 47 26 55 8 8 14 25 14 39 0 15 6 24 15 24 8 0 15 9 15 20 0 11 7
23 15 26 8 4 12 10 9 15 -3 5 0 9 5 9 6 0 11 7 11 16 0 8 13 27 29 42 16 15
33 39 36 55 4 15 13 27 21 27 8 0 14 7 14 15 0 9 6 18 14 21 8 3 18 19 21 35
4 15 12 27 18 26 7 -1 13 10 15 26 3 25 1 27 -33 27 -21 0 -48 -9 -65 -22 -38
-28 -47 -19 -61 58 -23 134 -29 200 -35 429 -7 259 4 452 31 575 27 117 41
144 88 168 51 26 58 26 226 2z m785 -1960 c32 -12 44 -65 24 -107 -10 -22 -21
-29 -51 -31 -59 -5 -87 18 -87 73 0 34 5 47 22 59 26 18 56 20 92 6z m2002
-197 c37 -24 47 -57 30 -97 -17 -40 -30 -49 -69 -48 -72 2 -105 94 -49 139 33
27 54 28 88 6z m-4302 -2028 c4 -12 27 -15 121 -15 96 0 115 -3 115 -15 0 -12
14 -15 70 -15 62 0 70 -2 70 -19 0 -10 -7 -25 -16 -32 -9 -7 -20 -22 -25 -34
-17 -35 -33 -61 -52 -79 -9 -10 -17 -26 -17 -36 0 -10 -7 -20 -15 -24 -8 -3
-15 -16 -15 -29 0 -13 -9 -32 -20 -42 -11 -10 -20 -29 -20 -42 0 -13 -7 -26
-15 -29 -8 -4 -15 -17 -15 -30 0 -14 -7 -36 -16 -49 -8 -13 -18 -39 -21 -57
-2 -18 -11 -40 -19 -49 -8 -8 -14 -28 -14 -44 0 -16 -7 -36 -15 -45 -8 -9 -18
-44 -21 -78 -4 -37 -12 -63 -20 -66 -10 -4 -14 -24 -14 -66 0 -47 -3 -60 -15
-60 -9 0 -15 -10 -16 -22 -6 -127 -11 -173 -24 -191 -8 -12 -15 -32 -15 -45 0
-18 -4 -23 -16 -18 -9 3 -26 6 -39 6 -13 0 -30 6 -37 13 -7 8 -30 17 -49 21
-20 3 -61 19 -92 35 -31 16 -67 31 -81 35 -14 3 -26 11 -26 16 0 6 -7 10 -15
10 -9 0 -42 14 -75 30 l-60 30 0 68 c0 44 5 75 15 88 9 11 14 42 15 78 0 40 5
65 16 77 9 10 19 40 22 66 3 26 11 54 19 61 7 7 13 25 13 38 0 14 7 38 15 54
8 16 16 38 18 48 1 10 10 31 20 45 9 15 17 36 17 48 0 11 9 32 20 46 11 14 20
34 20 43 0 10 7 20 15 24 8 3 15 16 15 29 0 14 6 30 14 36 8 7 18 26 21 42 4
16 11 27 16 24 4 -3 11 5 15 19 3 14 12 30 20 37 8 6 14 18 14 27 0 8 8 23 18
33 23 24 167 27 176 4z m1059 -305 c9 -11 28 -20 42 -20 15 0 24 -4 20 -10 -4
-6 7 -13 22 -16 26 -5 29 -9 25 -37 -3 -18 -10 -35 -17 -39 -7 -4 -16 -24 -20
-44 -3 -20 -13 -43 -21 -51 -8 -8 -14 -30 -14 -49 0 -24 -5 -34 -15 -34 -14 0
-19 -19 -18 -77 0 -13 -5 -23 -12 -23 -16 0 -25 -23 -25 -66 0 -21 -8 -42 -21
-55 -16 -16 -20 -28 -14 -55 3 -19 2 -34 -3 -34 -16 0 -32 -50 -32 -99 0 -34
-5 -51 -15 -55 -12 -4 -15 -29 -15 -131 0 -104 -2 -125 -15 -125 -8 0 -15 -6
-16 -12 0 -7 -1 -31 -2 -52 l-2 -40 -60 3 c-33 1 -68 7 -79 13 -20 11 -37 13
-108 16 l-38 2 0 56 c0 36 5 61 15 70 8 9 15 32 15 53 0 20 9 54 20 76 11 22
20 56 20 77 0 25 5 41 15 44 10 4 15 20 15 44 0 21 6 45 14 53 8 8 18 30 21
50 4 20 13 41 21 48 8 6 14 26 14 45 0 18 7 40 16 48 8 9 18 32 21 51 3 19 12
40 19 46 8 6 14 22 14 35 0 12 7 29 15 37 8 8 16 27 19 42 3 15 12 35 21 45 8
9 15 26 15 38 0 11 7 27 15 36 8 8 15 21 15 29 0 8 9 26 20 40 11 14 20 30 20
36 0 19 55 12 73 -9z m1181 -739 c3 -5 18 -12 33 -15 25 -7 143 -93 143 -105
0 -3 15 -22 33 -41 17 -20 38 -47 45 -60 7 -14 23 -43 36 -66 14 -22 41 -90
61 -151 l36 -111 -3 -178 c-3 -174 -4 -181 -32 -237 -30 -61 -64 -102 -111
-133 -44 -29 -164 -26 -230 5 -56 27 -136 102 -189 177 -39 55 -86 146 -86
166 0 8 -5 19 -11 25 -12 12 -37 104 -51 193 -14 93 -4 283 19 345 51 137 117
192 235 194 37 0 69 -3 72 -8z m3666 -275 c0 -13 -7 -37 -15 -52 -8 -16 -15
-42 -15 -59 0 -16 -6 -42 -14 -57 -8 -14 -17 -46 -21 -70 -4 -24 -14 -55 -21
-70 -8 -15 -14 -38 -14 -51 0 -14 -6 -30 -14 -36 -7 -6 -16 -30 -20 -52 -4
-23 -13 -51 -21 -62 -8 -12 -15 -31 -15 -43 0 -12 -7 -27 -15 -34 -8 -7 -15
-20 -15 -30 0 -9 -9 -29 -20 -43 -11 -14 -20 -32 -20 -41 0 -31 -19 -16 -26
21 -11 60 4 308 21 349 8 20 15 45 15 56 0 33 67 160 108 206 39 43 100 92
114 92 4 0 8 -11 8 -24z m-6303 -731 c0 -8 -4 -15 -8 -15 -4 0 -9 7 -13 15 -3
9 0 15 8 15 7 0 13 -7 13 -15z m66 -32 c-7 -2 -21 -2 -30 0 -10 3 -4 5 12 5
17 0 24 -2 18 -5z m114 -49 c-1 -1 -15 -4 -32 -8 -22 -5 -26 -4 -15 4 12 7 7
10 -20 11 -26 0 -30 2 -16 8 14 5 92 -8 83 -15z m6 19 c-7 -2 -19 -2 -25 0 -7
3 -2 5 12 5 14 0 19 -2 13 -5z m47 -41 c0 -5 -13 -7 -30 -4 -16 2 -30 6 -30 8
0 2 14 4 30 4 17 0 30 -4 30 -8z m115 -32 c-3 -5 -10 -10 -16 -10 -5 0 -9 5
-9 10 0 6 7 10 16 10 8 0 12 -4 9 -10z m60 0 c-16 -7 -14 -9 15 -9 23 -1 31
-4 24 -11 -7 -7 -19 -8 -36 -1 -38 14 -44 31 -11 30 25 0 26 -1 8 -9z m-28
-26 c-3 -3 -12 -4 -19 -1 -8 3 -5 6 6 6 11 1 17 -2 13 -5z m160 0 c-3 -3 -12
-4 -19 -1 -8 3 -5 6 6 6 11 1 17 -2 13 -5z m46 -1 c-7 -2 -19 -2 -25 0 -7 3
-2 5 12 5 14 0 19 -2 13 -5z m-306 -9 c-3 -3 -12 -4 -19 -1 -8 3 -5 6 6 6 11
1 17 -2 13 -5z m113 -14 c0 -5 -4 -10 -10 -10 -5 0 -10 5 -10 10 0 6 5 10 10
10 6 0 10 -4 10 -10z m217 -6 c-3 -3 -12 -4 -19 -1 -8 3 -5 6 6 6 11 1 17 -2
13 -5z m36 -35 c-16 -6 -15 -7 7 -11 20 -4 21 -6 4 -7 -11 0 -29 6 -40 14 -17
13 -17 14 -1 15 9 0 17 5 17 11 0 8 5 7 16 -2 14 -12 14 -14 -3 -20z m52 21
c-3 -5 -10 -10 -16 -10 -5 0 -9 5 -9 10 0 6 7 10 16 10 8 0 12 -4 9 -10z m35
0 c0 -5 -4 -10 -10 -10 -5 0 -10 5 -10 10 0 6 5 10 10 10 6 0 10 -4 10 -10z
m47 4 c-3 -3 -12 -4 -19 -1 -8 3 -5 6 6 6 11 1 17 -2 13 -5z m5360 -31 c-3
-10 -5 -4 -5 12 0 17 2 24 5 18 2 -7 2 -21 0 -30z m-5248 3 c-2 -2 -17 -6 -34
-10 -22 -5 -26 -4 -15 4 14 9 59 15 49 6z m221 -6 c0 -6 -25 -10 -57 -9 -42 0
-52 3 -38 9 28 12 95 12 95 0z m3404 -2 c-6 -9 -339 -7 -354 2 -6 4 72 6 174
6 101 -1 182 -4 180 -8z m86 4 c0 -4 -16 -8 -35 -8 -21 0 -30 3 -22 8 16 10
57 10 57 0z m1520 -2 c0 -5 -4 -10 -10 -10 -5 0 -10 5 -10 10 0 6 5 10 10 10
6 0 10 -4 10 -10z m-5153 -6 c-3 -3 -12 -4 -19 -1 -8 3 -5 6 6 6 11 1 17 -2
13 -5z m313 -24 c-8 -5 -40 -9 -70 -8 l-55 1 60 7 c33 4 65 7 70 8 6 1 3 -3
-5 -8z m3457 4 c-3 -3 -12 -4 -19 -1 -8 3 -5 6 6 6 11 1 17 -2 13 -5z m-3164
-11 c-13 -2 -33 -2 -45 0 -13 2 -3 4 22 4 25 0 35 -2 23 -4z m100 0 c-13 -2
-33 -2 -45 0 -13 2 -3 4 22 4 25 0 35 -2 23 -4z m2245 0 c-26 -2 -71 -2 -100
0 -29 2 -8 3 47 3 55 0 79 -1 53 -3z m180 0 c-27 -4 -40 -23 -16 -23 6 0 9 -2
6 -5 -3 -3 -16 -1 -29 4 -13 5 -19 11 -14 12 6 1 -6 5 -25 9 -27 6 -20 7 35 7
39 0 58 -2 43 -4z m830 0 c-15 -2 -42 -2 -60 0 -18 2 -6 4 27 4 33 0 48 -2 33
-4z m-3739 -17 c-2 -2 -22 -6 -44 -9 -27 -4 -35 -3 -25 3 14 9 79 15 69 6z
m129 -3 c-10 -2 -26 -2 -35 0 -10 3 -2 5 17 5 19 0 27 -2 18 -5z m155 0 c-24
-2 -62 -2 -85 0 -24 2 -5 4 42 4 47 0 66 -2 43 -4z m2032 -5 c114 2 100 -5
-22 -11 -76 -4 -93 -2 -93 10 0 9 5 11 12 7 7 -5 53 -7 103 -6z m318 5 c-13
-2 -33 -2 -45 0 -13 2 -3 4 22 4 25 0 35 -2 23 -4z m176 -2 c8 -5 -5 -7 -35
-4 -27 3 -51 7 -53 9 -9 8 75 3 88 -5z m148 3 c-3 -3 -12 -4 -19 -1 -8 3 -5 6
6 6 11 1 17 -2 13 -5z m736 -1 c-40 -2 -106 -2 -145 0 -40 1 -8 3 72 3 80 0
112 -2 73 -3z m237 -9 c-38 -8 -90 -9 -90 -2 0 4 24 7 53 7 28 -1 45 -3 37 -5z
m-3662 -11 c-32 -2 -84 -2 -115 0 -32 2 -6 3 57 3 63 0 89 -1 58 -3z m262 3
c0 -2 -11 -6 -25 -8 -14 -3 -25 -1 -25 3 0 5 11 9 25 9 14 0 25 -2 25 -4z
m1960 -5 c0 -5 -9 -7 -20 -4 -11 3 -20 7 -20 9 0 2 9 4 20 4 11 0 20 -4 20 -9z
m57 3 c-3 -3 -12 -4 -19 -1 -8 3 -5 6 6 6 11 1 17 -2 13 -5z m181 -1 c-15 -2
-42 -2 -60 0 -18 2 -6 4 27 4 33 0 48 -2 33 -4z m855 0 c-13 -2 -33 -2 -45 0
-13 2 -3 4 22 4 25 0 35 -2 23 -4z m94 1 c-3 -3 -12 -4 -19 -1 -8 3 -5 6 6 6
11 1 17 -2 13 -5z m147 -4 c-6 -6 -21 -6 -39 -1 -30 9 -30 9 10 10 25 1 36 -2
29 -9z m-1527 -6 c-3 -3 -12 -4 -19 -1 -8 3 -5 6 6 6 11 1 17 -2 13 -5z m90 0
c-3 -3 -12 -4 -19 -1 -8 3 -5 6 6 6 11 1 17 -2 13 -5z m490 0 c-3 -3 -12 -4
-19 -1 -8 3 -5 6 6 6 11 1 17 -2 13 -5z m80 0 c-3 -3 -12 -4 -19 -1 -8 3 -5 6
6 6 11 1 17 -2 13 -5z m-3450 -10 c-3 -3 -12 -4 -19 -1 -8 3 -5 6 6 6 11 1 17
-2 13 -5z m2713 -4 c0 -5 -2 -10 -4 -10 -3 0 -8 5 -11 10 -3 6 -1 10 4 10 6 0
11 -4 11 -10z m1797 -22 c-3 -7 -5 -2 -5 12 0 14 2 19 5 13 2 -7 2 -19 0 -25z
m853 22 c0 -5 -7 -10 -16 -10 -8 0 -12 5 -9 10 3 6 10 10 16 10 5 0 9 -4 9
-10z m-5282 -17 c-10 -2 -26 -2 -35 0 -10 3 -2 5 17 5 19 0 27 -2 18 -5z
m5239 -9 c-3 -3 -12 -4 -19 -1 -8 3 -5 6 6 6 11 1 17 -2 13 -5z m-5235 -16
c-9 -9 -15 -9 -24 0 -9 9 -7 12 12 12 19 0 21 -3 12 -12z m1186 5 c-15 -2 -42
-2 -60 0 -18 2 -6 4 27 4 33 0 48 -2 33 -4z m1402 -8 c0 -2 -6 -5 -13 -8 -8
-3 -14 1 -14 8 0 7 6 11 14 8 7 -3 13 -6 13 -8z m1890 11 c0 -3 -4 -8 -10 -11
-5 -3 -10 -1 -10 4 0 6 5 11 10 11 6 0 10 -2 10 -4z m-3292 -23 c-10 -2 -28
-2 -40 0 -13 2 -5 4 17 4 22 1 32 -1 23 -4z m1427 -3 c3 -5 1 -10 -4 -10 -6 0
-11 5 -11 10 0 6 2 10 4 10 3 0 8 -4 11 -10z m-1238 -7 c-20 -2 -52 -2 -70 0
-17 2 0 4 38 4 39 0 53 -2 32 -4z m-1170 -9 c-3 -3 -12 -4 -19 -1 -8 3 -5 6 6
6 11 1 17 -2 13 -5z m2360 -26 c-3 -8 -6 -5 -6 6 -1 11 2 17 5 13 3 -3 4 -12
1 -19z m-47 2 c0 -5 -5 -10 -11 -10 -5 0 -7 5 -4 10 3 6 8 10 11 10 2 0 4 -4
4 -10z m-40 -12 c0 -21 -17 -41 -29 -34 -7 4 -4 13 7 26 21 23 22 23 22 8z
m2157 6 c-3 -3 -12 -4 -19 -1 -8 3 -5 6 6 6 11 1 17 -2 13 -5z m23 -24 c0 -5
-5 -10 -11 -10 -5 0 -7 5 -4 10 3 6 8 10 11 10 2 0 4 -4 4 -10z m-3103 -7 c-9
-2 -15 -9 -12 -14 4 -5 1 -9 -4 -9 -6 0 -11 7 -11 15 0 9 9 15 23 14 17 -1 18
-2 4 -6z m3420 0 c-10 -9 -247 -10 -247 -1 0 5 57 8 127 8 69 0 123 -3 120 -7z
m-3544 -10 c-7 -2 -19 -2 -25 0 -7 3 -2 5 12 5 14 0 19 -2 13 -5z m1074 1 c-3
-3 -12 -4 -19 -1 -8 3 -5 6 6 6 11 1 17 -2 13 -5z m2096 -1 c-7 -2 -19 -2 -25
0 -7 3 -2 5 12 5 14 0 19 -2 13 -5z m101 -7 c-21 -15 -30 -14 -19 3 3 6 14 11
23 11 13 0 13 -2 -4 -14z m101 -16 c-3 -5 -13 -10 -21 -10 -8 0 -12 5 -9 10 3
6 13 10 21 10 8 0 12 -4 9 -10z m-3195 -9 c0 -5 8 -11 18 -13 9 -2 -9 -4 -40
-4 -58 0 -78 11 -35 19 40 8 57 7 57 -2z m790 -14 c8 -3 -1 -5 -20 -5 -19 0
-29 2 -22 5 6 2 9 10 5 16 -5 9 -3 9 8 1 8 -6 21 -14 29 -17z m-1840 -8 c0 -5
-4 -9 -10 -9 -5 0 -10 7 -10 16 0 8 5 12 10 9 6 -3 10 -10 10 -16z m4277 15
c-3 -3 -12 -4 -19 -1 -8 3 -5 6 6 6 11 1 17 -2 13 -5z m-2514 -21 c-7 -2 -19
-2 -25 0 -7 3 -2 5 12 5 14 0 19 -2 13 -5z m-678 -13 c3 -5 -3 -10 -14 -10
-12 0 -21 5 -21 10 0 6 6 10 14 10 8 0 18 -4 21 -10z m765 6 c0 -2 -9 -6 -20
-9 -11 -3 -20 -1 -20 4 0 5 9 9 20 9 11 0 20 -2 20 -4z m-853 -12 c-3 -3 -12
-4 -19 -1 -8 3 -5 6 6 6 11 1 17 -2 13 -5z m766 -1 c-7 -2 -19 -2 -25 0 -7 3
-2 5 12 5 14 0 19 -2 13 -5z m-1400 -10 c-7 -2 -19 -2 -25 0 -7 3 -2 5 12 5
14 0 19 -2 13 -5z m1244 -25 c-3 -7 -5 -2 -5 12 0 14 2 19 5 13 2 -7 2 -19 0
-25z m2071 25 c-10 -2 -28 -2 -40 0 -13 2 -5 4 17 4 22 1 32 -1 23 -4z m-3191
-9 c-3 -3 -12 -4 -19 -1 -8 3 -5 6 6 6 11 1 17 -2 13 -5z m3192 -10 c9 -8 -65
-2 -84 6 -13 6 -2 7 30 3 28 -3 52 -7 54 -9z m244 9 c-7 -2 -19 -2 -25 0 -7 3
-2 5 12 5 14 0 19 -2 13 -5z m-3525 -10 c-10 -2 -28 -2 -40 0 -13 2 -5 4 17 4
22 1 32 -1 23 -4z m3340 0 c-10 -2 -26 -2 -35 0 -10 3 -2 5 17 5 19 0 27 -2
18 -5z m79 1 c-3 -3 -12 -4 -19 -1 -8 3 -5 6 6 6 11 1 17 -2 13 -5z m-262 -14
c27 -7 27 -8 5 -8 -14 0 -36 4 -50 8 -20 6 -21 8 -5 8 11 0 34 -4 50 -8z
m-2245 -10 c0 -5 -4 -10 -10 -10 -5 0 -10 5 -10 10 0 6 5 10 10 10 6 0 10 -4
10 -10z m219 6 c-7 -7 -169 -9 -176 -2 -3 3 36 6 87 6 51 0 91 -2 89 -4z
m-744 -46 c3 -5 -3 -10 -15 -10 -12 0 -18 5 -15 10 3 6 10 10 15 10 5 0 12 -4
15 -10z m1862 4 c-3 -3 -12 -4 -19 -1 -8 3 -5 6 6 6 11 1 17 -2 13 -5z m483
-4 c0 -5 -7 -10 -16 -10 -8 0 -12 5 -9 10 3 6 10 10 16 10 5 0 9 -4 9 -10z
m-427 -7 c-7 -2 -19 -2 -25 0 -7 3 -2 5 12 5 14 0 19 -2 13 -5z m195 0 c-15
-2 -42 -2 -60 0 -18 2 -6 4 27 4 33 0 48 -2 33 -4z m-271 -19 c-3 -3 -12 -4
-19 -1 -8 3 -5 6 6 6 11 1 17 -2 13 -5z m160 0 c-3 -3 -12 -4 -19 -1 -8 3 -5
6 6 6 11 1 17 -2 13 -5z m256 -1 c-7 -2 -19 -2 -25 0 -7 3 -2 5 12 5 14 0 19
-2 13 -5z"/>
<path d="M4117 7948 c-29 -6 -51 -18 -57 -29 -20 -37 -32 -234 -25 -427 l7
-194 25 7 c26 6 213 187 213 205 0 5 6 10 13 10 6 0 25 16 41 35 16 19 33 35
38 35 11 0 48 38 48 49 0 5 9 13 20 16 11 3 20 10 20 15 0 4 14 13 30 19 17 5
30 14 30 20 0 5 9 13 20 16 11 3 20 13 20 21 0 8 8 14 19 14 10 0 24 7 31 15
7 8 18 15 26 15 19 0 26 16 19 43 -10 36 -145 93 -281 116 -72 13 -191 12
-257 -1z"/>
<path d="M7622 7608 c-82 -22 -84 -23 -78 -50 3 -15 21 -43 41 -63 19 -20 35
-41 35 -47 0 -5 29 -38 65 -74 35 -35 76 -84 90 -109 15 -25 31 -45 36 -45 5
0 9 -8 9 -17 0 -10 16 -34 35 -53 19 -19 35 -39 35 -45 0 -6 9 -18 20 -28 11
-9 20 -23 20 -31 0 -8 7 -16 15 -20 8 -3 15 -12 15 -20 0 -7 14 -29 31 -47
l31 -33 19 23 c11 13 22 35 25 50 2 14 14 60 24 102 11 42 20 89 20 104 0 15
7 62 15 104 10 45 15 113 13 166 l-3 89 -60 19 c-33 10 -73 23 -90 29 -16 6
-86 12 -155 14 -105 3 -139 0 -208 -18z"/>
<path d="M5790 5968 c-49 -31 -59 -47 -60 -93 0 -53 38 -95 117 -131 49 -22
68 -25 118 -20 102 9 163 45 184 109 11 33 10 41 -6 70 -11 17 -32 38 -49 46
-16 8 -41 20 -56 28 -16 8 -61 13 -120 13 -78 0 -98 -4 -128 -22z"/>
<path d="M5872 5603 c-20 -24 -64 -62 -97 -84 -52 -34 -67 -39 -118 -39 -70 0
-127 29 -186 96 -21 25 -49 45 -62 46 -20 3 -24 -2 -27 -28 -3 -26 6 -38 55
-85 32 -30 70 -62 85 -71 15 -10 29 -31 33 -48 4 -17 13 -43 21 -58 8 -15 14
-33 14 -40 0 -8 19 -53 43 -100 54 -109 118 -181 183 -205 65 -23 83 -22 151
10 89 42 177 137 245 262 52 96 58 104 123 136 78 40 125 82 125 111 0 41 -26
39 -98 -8 -100 -67 -147 -79 -224 -58 -44 12 -110 75 -157 147 -45 69 -62 72
-109 16z m106 -250 c4 -6 19 -14 33 -18 14 -4 41 -20 58 -36 25 -23 31 -34 25
-52 -3 -12 -13 -26 -20 -30 -8 -4 -14 -12 -14 -18 0 -5 -25 -35 -57 -66 l-56
-57 -63 0 c-55 0 -66 4 -86 26 -29 32 -45 56 -58 87 -6 13 -18 29 -26 36 -11
7 -14 24 -12 55 3 41 6 45 38 55 19 5 44 16 55 23 25 16 173 12 183 -5z"/>
<path d="M2378 2043 c7 -3 16 -2 19 1 4 3 -2 6 -13 5 -11 0 -14 -3 -6 -6z"/>
</g>
</svg>
